<svg version="1" xmlns="http://www.w3.org/2000/svg" width="814.667" height="814.667" viewBox="0 0 611.000000 611.000000"><path d="M453.5 5.1c-11.2 6.3-20.8 11.6-26 14.4-2.2 1.2-30.5 16.9-63 35l-58.9 32.7-5.6-1.3c-3-.7-5.9-1.4-6.5-1.5-19.4-5.4-38.7-10.5-40.8-10.9-.9-.2-2.1-.6-2.5-.9-.5-.3-1.9-.7-3.3-1-1.3-.2-6.7-1.6-11.9-3.1-5.2-1.4-14.2-3.9-20-5.4-5.8-1.6-24.9-6.8-42.5-11.5-17.6-4.8-32.8-8.9-33.8-9.1-2-.4-17.8-4.8-28.1-7.7-3.8-1.1-7.7-2.1-8.6-2.3-1-.2-3.5-.8-5.6-1.4-6.6-1.8-10.2-1.4-12.9 1.5L81 35.3v209.3c0 165.3.3 209.9 1.3 212.1 3.3 7.5 5.6 8.7 30.7 15.4 6.3 1.6 13.8 3.7 16.7 4.5l5.1 1.5v63.8c0 51.5.3 64.2 1.3 66 2.3 3.6 6.7 2.7 18.5-3.9 5.9-3.3 10.9-6 11.1-6 .2 0 2-1 4.1-2.3 2-1.3 6.6-3.9 10.2-5.9 3.6-1.9 8.5-4.6 11-6 2.5-1.4 7.2-4 10.5-5.8 3.3-1.8 11.4-6.3 18-10s14.7-8.2 18-10c3.3-1.8 7.4-4 9-5 3.7-2.2 11.5-6.5 17.4-9.7 2.4-1.3 6.2-3.4 8.5-4.7 2.3-1.2 9.6-5.3 16.4-9l12.3-6.8 19.2 5.2c10.6 2.8 20.6 5.6 22.2 6.1 3.4 1.1 49.8 13.5 56 15 2.2.5 9.4 2.5 16 4.3 6.6 1.9 20.8 5.7 31.5 8.6 10.7 2.9 23.4 6.3 28.1 7.6 4.7 1.4 9.5 2.6 10.5 2.9 1 .2 7.7 2 14.9 3.9 17.9 5 18.9 5.1 22.8 1.6l3.2-2.8V365.3c-.1-195.7-.2-210-1.8-213-2.7-5.1-7.4-7.9-17.9-10.7-5.4-1.4-14.2-3.8-19.5-5.2-5.4-1.5-10.8-2.9-12-3.2-1.3-.2-2.3-1.2-2.4-2.1 0-.9-.2-29.7-.3-64.1-.2-34.4-.3-62.8-.4-63.2-.5-1.8-3.6-3.8-6-3.8-1.5 0-6.7 2.3-11.7 5.1zm1.3 70.1c0 28.2-.2 51.6-.4 52-.2.3-1.6.2-3.2-.3-1.5-.5-17.1-4.8-34.7-9.5s-40.3-10.8-50.5-13.5c-10.2-2.8-21.9-5.9-26-7-4.1-1.1-8.3-2.2-9.4-2.5-1.3-.4 2.1-2.8 12-8.3 23.4-13 25.8-14.3 30.4-16.9 2.5-1.3 7.9-4.3 12-6.5s8.2-4.6 9.1-5.3c.8-.8 1.9-1.4 2.3-1.4.5 0 6.3-3.1 13-6.9 6.6-3.7 15-8.4 18.6-10.4 3.6-2 11-6.1 16.5-9.1s10.1-5.6 10.2-5.6c.1 0 .1 23.1.1 51.2zM101.5 50c1.4.5 3.6 1.2 4.8 1.4 2.9.6 34.8 9.2 41.2 11.1 2.8.8 14.5 4 26 7 11.6 3.1 28.4 7.7 37.5 10.1 9.1 2.5 17.2 4.7 18 4.9 2.9.6 48.6 13 52.4 14.2 2.3.6 1.6 1.2-6.4 5.5-3.6 1.9-31 17.1-61 33.7-30 16.7-57 31.7-60 33.4-12.7 7-15 9.2-17.9 16.4-1 2.5-1.3 31.4-1.3 137.7 0 74-.3 134.6-.6 134.6-1.2 0-27.7-7.1-30-8.1-1.3-.5-3.2-.9-4.2-.9-1.1 0-2-.6-2.1-1.3-.1-1.6-.1-396.7 0-399 .1-2 .2-2 3.6-.7zm220.1 59.5c4.8 1.4 10.1 2.8 11.7 3.1 1.7.2 3.5.8 4 1.1.6.4 2.7 1 4.6 1.4 2 .4 12.8 3.3 24.1 6.4 11.3 3 21.3 5.8 22.2 6 .9.2 5.1 1.3 9.3 2.5 4.2 1.2 8.4 2.3 9.3 2.5 2.6.6 19.4 5.2 27.8 7.5 4.1 1.2 8.3 2.3 9.2 2.5.9.2 3.7 1 6.2 1.7l4.5 1.4.1 136c.2 125.4.1 136.1-1.5 137.1-2 1.2-45.5 25.5-53.1 29.6-3 1.6-6.8 3.8-8.5 4.7-1.6 1-5.7 3.2-9 5.1-3.3 1.8-20.4 11.2-38 21s-32.2 17.6-32.4 17.3c-.3-.3-.5-368.6-.2-385.2.1-2.3.3-4.2.6-4.2s4.4 1.1 9.1 2.5zm170.8 46.1c1 .2 3.3.8 5 1.3 1.7.5 5 1.5 7.2 2l4.1 1.1v200.5c0 134.4-.3 200.5-1 200.5-.5 0-4-.8-7.6-1.9-11.6-3.3-69.8-19.1-72.1-19.6-.8-.2-16.6-4.4-35-9.4s-41.4-11.2-51-13.8c-9.6-2.5-17.8-4.9-18.3-5.3-.4-.3 2.8-2.5 7-4.8 4.3-2.3 10.7-5.8 14.3-7.8 11.3-6.4 78.3-43.5 83.5-46.4 35.3-19.3 37-20.5 40.8-27.5l2.2-4 .2-134c.1-73.7.2-134.5.2-135.2.1-.8 2.9-.4 9.4 1.4 5 1.4 10.1 2.7 11.1 2.9z"/></svg>